<svg width="27" height="27" viewBox="0 0 27 27" fill="none" xmlns="http://www.w3.org/2000/svg">
<path fill-rule="evenodd" clip-rule="evenodd" d="M2.8125 6.75C2.8125 6.43934 3.06434 6.1875 3.375 6.1875H23.625C23.9357 6.1875 24.1875 6.43934 24.1875 6.75C24.1875 7.06066 23.9357 7.3125 23.625 7.3125H3.375C3.06434 7.3125 2.8125 7.06066 2.8125 6.75Z" fill="white"/>
<path fill-rule="evenodd" clip-rule="evenodd" d="M11.25 2.8125C10.318 2.8125 9.5625 3.56802 9.5625 4.5V6.75C9.5625 7.06066 9.31066 7.3125 9 7.3125C8.68934 7.3125 8.4375 7.06066 8.4375 6.75V4.5C8.4375 2.9467 9.6967 1.6875 11.25 1.6875H15.75C17.3033 1.6875 18.5625 2.9467 18.5625 4.5V6.75C18.5625 7.06066 18.3107 7.3125 18 7.3125C17.6893 7.3125 17.4375 7.06066 17.4375 6.75V4.5C17.4375 3.56802 16.682 2.8125 15.75 2.8125H11.25ZM5.625 6.1875C5.93566 6.1875 6.1875 6.43934 6.1875 6.75V22.5C6.1875 23.432 6.94302 24.1875 7.875 24.1875H19.125C20.057 24.1875 20.8125 23.432 20.8125 22.5V6.75C20.8125 6.43934 21.0643 6.1875 21.375 6.1875C21.6857 6.1875 21.9375 6.43934 21.9375 6.75V22.5C21.9375 24.0533 20.6783 25.3125 19.125 25.3125H7.875C6.3217 25.3125 5.0625 24.0533 5.0625 22.5V6.75C5.0625 6.43934 5.31434 6.1875 5.625 6.1875Z" fill="white"/>
<path fill-rule="evenodd" clip-rule="evenodd" d="M11.25 11.8125C11.5607 11.8125 11.8125 12.0643 11.8125 12.375V19.125C11.8125 19.4357 11.5607 19.6875 11.25 19.6875C10.9393 19.6875 10.6875 19.4357 10.6875 19.125V12.375C10.6875 12.0643 10.9393 11.8125 11.25 11.8125Z" fill="white"/>
<path fill-rule="evenodd" clip-rule="evenodd" d="M15.75 11.8125C16.0607 11.8125 16.3125 12.0643 16.3125 12.375V19.125C16.3125 19.4357 16.0607 19.6875 15.75 19.6875C15.4393 19.6875 15.1875 19.4357 15.1875 19.125V12.375C15.1875 12.0643 15.4393 11.8125 15.75 11.8125Z" fill="white"/>
</svg>
